# Blender v2.92.0 OBJ File: 'robot_lowerArm.blend'
# www.blender.org
o Cylinder_Cylinder.004
v 0.000000 0.001500 -0.093052
v 0.046526 0.067298 -0.046526
v 0.060789 0.037110 -0.060789
v 0.065798 0.001500 -0.065798
v 0.060789 -0.034109 -0.060789
v 0.046526 -0.064298 -0.046526
v 0.025180 -0.084469 -0.025180
v 0.065798 0.067298 -0.000000
v 0.085969 0.037110 -0.000000
v 0.093052 0.001500 -0.000000
v 0.085969 -0.034109 -0.000000
v 0.065798 -0.064298 -0.000000
v 0.035610 -0.084469 -0.000000
v 0.000000 -0.091552 -0.000000
v 0.046526 0.067298 0.046526
v 0.060789 0.037110 0.060789
v 0.065798 0.001500 0.065798
v 0.060789 -0.034109 0.060789
v 0.046526 -0.064298 0.046526
v 0.025180 -0.084469 0.025180
v 0.000000 0.067298 0.065798
v 0.000000 0.037110 0.085969
v 0.000000 0.001500 0.093052
v 0.000000 -0.034109 0.085969
v 0.000000 -0.064298 0.065798
v 0.000000 -0.084469 0.035610
v -0.046526 0.067298 0.046526
v -0.060789 0.037110 0.060789
v -0.065798 0.001500 0.065798
v -0.060789 -0.034109 0.060789
v -0.046526 -0.064298 0.046526
v -0.025180 -0.084469 0.025180
v -0.065798 0.067298 -0.000000
v -0.085969 0.037110 -0.000000
v -0.093052 0.001500 -0.000000
v -0.085969 -0.034109 -0.000000
v -0.065798 -0.064298 -0.000000
v -0.035610 -0.084469 -0.000000
v -0.046526 0.067298 -0.046526
v -0.060789 0.037110 -0.060789
v -0.065798 0.001500 -0.065798
v -0.060789 -0.034109 -0.060789
v -0.046526 -0.064298 -0.046526
v -0.025180 -0.084469 -0.025180
v -0.000000 0.067298 -0.065798
v -0.000000 0.037110 -0.085969
v -0.000000 -0.034109 -0.085969
v -0.000000 -0.064298 -0.065798
v -0.000000 -0.084469 -0.035610
v 0.000000 0.309234 -0.065229
v 0.056490 0.309234 -0.032614
v 0.056490 0.309234 0.032615
v -0.000000 0.309234 0.065229
v -0.056490 0.309234 0.032614
v -0.056490 0.309234 -0.032614
v 0.072947 0.309234 -0.042116
v 0.000000 0.309234 -0.084232
v 0.072947 0.309234 0.042116
v -0.000000 0.309234 0.084232
v -0.072947 0.309234 0.042116
v -0.072947 0.309234 -0.042116
v 0.072947 0.325935 -0.042116
v 0.000000 0.325935 -0.084232
v 0.072947 0.325935 0.042116
v -0.000000 0.325935 0.084232
v -0.072947 0.325935 0.042116
v -0.072947 0.325935 -0.042116
v 0.063344 0.325935 -0.036572
v 0.000000 0.325935 -0.073143
v 0.063344 0.325935 0.036572
v -0.000000 0.325935 0.073143
v -0.063344 0.325935 0.036572
v -0.063344 0.325935 -0.036572
v 0.033643 0.786980 -0.019424
v 0.000000 0.786980 -0.038847
v 0.033643 0.786980 0.019424
v -0.000000 0.786980 0.038847
v -0.033643 0.786980 0.019424
v -0.033643 0.786980 -0.019424
v 0.033643 1.124516 -0.019424
v 0.000000 1.124516 -0.038847
v 0.033643 1.124516 0.019424
v -0.000000 1.124516 0.038847
v -0.033643 1.124516 0.019424
v -0.033643 1.124516 -0.019424
v 0.063828 1.163108 -0.036851
v 0.000000 1.163108 -0.073702
v 0.063828 1.163108 0.036851
v -0.000000 1.163108 0.073702
v -0.063828 1.163108 0.036851
v -0.063828 1.163108 -0.036851
v -0.056490 0.073517 -0.000000
v -0.000000 0.067678 -0.065229
v 0.000000 0.067678 -0.065229
v -0.056490 0.061010 0.032614
v -0.050968 0.067298 0.035803
v -0.056490 0.067298 0.022471
v 0.041354 0.072186 -0.041354
v -0.056490 0.061010 -0.032614
v -0.050968 0.067298 -0.035803
v -0.056490 0.067298 -0.022471
v 0.056490 0.067298 -0.022471
v 0.056490 0.073517 -0.000000
v 0.050968 0.067298 -0.035803
v -0.041354 0.072186 -0.041354
v 0.056490 0.061010 -0.032614
v 0.050968 0.067298 0.035803
v 0.056490 0.061010 0.032615
v 0.056490 0.067298 0.022471
v 0.041354 0.072186 0.041354
v 0.000000 0.067678 0.065229
v -0.000000 0.067678 0.065229
v -0.041354 0.072186 0.041354
vt 0.280007 0.092169
vt 0.248343 0.190851
vt 0.248343 0.079053
vt 0.684027 0.841797
vt 0.707181 0.897696
vt 0.660873 0.897696
vt 0.248343 0.348958
vt 0.340512 0.301569
vt 0.280007 0.362074
vt 0.944104 0.694060
vt 0.969643 0.610951
vt 0.971720 0.688540
vt 0.664319 0.785897
vt 0.598382 0.738509
vt 0.644690 0.738509
vt 0.724824 0.693919
vt 0.753104 0.777447
vt 0.725991 0.765617
vt 0.439195 0.269905
vt 0.426079 0.301569
vt 0.244885 0.740662
vt 0.221473 0.848878
vt 0.221473 0.731706
vt 0.578753 0.785897
vt 0.565637 0.705764
vt 0.477268 0.761613
vt 0.494787 0.645632
vt 0.505894 0.753313
vt 0.628128 0.864951
vt 0.518248 0.725393
vt 0.565637 0.659455
vt 0.465246 0.645060
vt 0.505894 0.548392
vt 0.628128 0.818643
vt 0.486584 0.362074
vt 0.980698 0.212663
vt 0.951162 0.294802
vt 0.953240 0.201940
vt 1.000000 0.610951
vt 0.971720 0.725548
vt 0.972888 0.614203
vt 0.426079 0.238240
vt 0.518248 0.190851
vt 0.439195 0.269905
vt 0.660873 0.785898
vt 0.518248 0.348958
vt 0.486584 0.447640
vt 0.978779 0.409808
vt 0.951162 0.415328
vt 0.518248 0.639826
vt 0.598382 0.626710
vt 0.707181 0.785898
vt 0.518248 0.460756
vt 0.426079 0.508145
vt 0.953240 0.492917
vt 0.578753 0.579321
vt 0.644690 0.626710
vt 0.998736 0.731471
vt 0.972888 0.797247
vt 0.486584 0.177736
vt 0.518248 0.079053
vt 0.244885 0.731706
vt 0.221473 0.614498
vt 0.244885 0.614535
vt 0.724824 0.639826
vt 0.677435 0.659455
vt 0.922536 0.423744
vt 0.940055 0.307763
vt 0.951162 0.415444
vt 0.739926 0.818643
vt 0.327397 0.539809
vt 0.340512 0.508145
vt 0.677435 0.705764
vt 0.910514 0.307191
vt 0.951162 0.210523
vt 0.739926 0.864951
vt 0.280007 0.447640
vt 0.969643 0.901927
vt 0.944104 0.805412
vt 0.971720 0.809066
vt 0.340512 0.031664
vt 0.327397 0.000000
vt 0.753104 0.579322
vt 0.725991 0.582573
vt 0.051289 0.821268
vt 0.079251 0.948244
vt 0.051289 0.932100
vt 0.971720 0.809498
vt 0.984110 0.951049
vt 0.971720 0.951470
vt 0.163138 0.932100
vt 0.135176 0.805124
vt 0.163138 0.821268
vt 0.163138 0.821268
vt 0.191100 0.948244
vt 0.163138 0.932100
vt 0.107213 0.932100
vt 0.079251 0.805124
vt 0.107213 0.821268
vt 0.938476 0.550720
vt 0.910514 0.423744
vt 0.938476 0.439888
vt 0.135175 0.821268
vt 0.107213 0.948244
vt 0.107213 0.805124
vt 0.874692 0.812892
vt 0.891009 0.946591
vt 0.874692 0.956011
vt 0.923643 0.812905
vt 0.936469 0.955888
vt 0.923643 0.955901
vt 0.517648 0.635679
vt 0.505894 0.539809
vt 0.517648 0.543752
vt 0.220243 0.948121
vt 0.207417 0.805137
vt 0.220243 0.805124
vt 0.517648 0.731549
vt 0.505894 0.635679
vt 0.517648 0.639622
vt 0.938476 0.424165
vt 0.950866 0.565717
vt 0.938476 0.566138
vt 0.641530 0.579321
vt 0.718132 0.250400
vt 0.764812 0.579321
vt 0.207417 0.805124
vt 0.191100 0.938823
vt 0.191100 0.814545
vt 0.923643 0.956011
vt 0.907326 0.822312
vt 0.923643 0.812892
vt 0.907326 0.956011
vt 0.891009 0.822312
vt 0.907326 0.812892
vt 0.739926 0.929017
vt 0.756243 0.795318
vt 0.756243 0.919597
vt 0.447886 0.790267
vt 0.464202 0.923966
vt 0.447886 0.933387
vt 0.030847 0.259214
vt 0.096536 0.000000
vt 0.096796 0.259214
vt 0.248343 0.000000
vt 0.151547 0.355285
vt 0.124172 0.000000
vt 0.837663 0.000000
vt 0.774588 0.361597
vt 0.764812 0.032632
vt 0.000000 0.614499
vt 0.124172 0.614499
vt 0.837663 0.032632
vt 0.886131 0.344266
vt 0.847439 0.361597
vt 0.641530 0.000000
vt 0.564928 0.328922
vt 0.518248 0.000000
vt 0.000000 0.834736
vt 0.051289 0.930353
vt 0.000000 0.900742
vt 0.871822 0.610951
vt 0.630405 0.328922
vt 0.573435 0.579321
vt 0.652656 0.250400
vt 0.709626 0.000000
vt 0.217496 0.355285
vt 0.151807 0.614498
vt 0.813280 0.344266
vt 0.798971 0.610951
vt 0.356795 0.539809
vt 0.465246 0.602424
vt 0.465246 0.727653
vt 0.294019 0.819879
vt 0.345308 0.915496
vt 0.294019 0.885884
vt 0.816101 0.894551
vt 0.764812 0.798934
vt 0.816101 0.828545
vt 0.447886 0.885884
vt 0.396597 0.790267
vt 0.447886 0.819879
vt 0.396597 0.885884
vt 0.345308 0.790267
vt 0.396597 0.819879
vt 0.867390 0.924163
vt 0.816101 0.894551
vt 0.465246 0.848214
vt 0.466213 0.848214
vt 0.466213 0.848214
vt 0.221473 0.887095
vt 0.237288 0.848914
vt 0.237288 0.887095
vt 0.497991 0.927267
vt 0.506780 0.918478
vt 0.516211 0.934814
vt 0.295367 0.202422
vt 0.311290 0.209018
vt 0.327397 0.269905
vt 0.381839 0.238240
vt 0.397762 0.244836
vt 0.237288 0.925276
vt 0.285585 0.807140
vt 0.276285 0.798894
vt 0.294019 0.790267
vt 0.249308 0.879712
vt 0.285774 0.956715
vt 0.248343 0.879770
vt 0.249308 0.879712
vt 0.517377 0.751270
vt 0.505894 0.746514
vt 0.517377 0.731549
vt 0.951162 0.531098
vt 0.966977 0.492916
vt 0.966977 0.531098
vt 0.471224 0.067482
vt 0.455302 0.060887
vt 0.439195 0.000000
vt 0.368829 0.025069
vt 0.384752 0.031664
vt 0.966977 0.569279
vt 0.497991 0.769161
vt 0.516211 0.761613
vt 0.506780 0.777949
vt 0.971408 0.181796
vt 0.959922 0.182021
vt 0.978006 0.000000
vt 0.819752 0.622102
vt 0.857606 0.618771
vt 0.874692 0.798934
vt 0.140408 0.796572
vt 0.121561 0.800306
vt 0.110736 0.614498
vt 0.935587 0.792747
vt 0.924100 0.792972
vt 0.942184 0.610951
vt 0.573188 0.797048
vt 0.611041 0.793717
vt 0.628128 0.973880
vt 0.110736 0.805124
vt 0.000000 0.805013
vt 0.081065 0.623051
vt 0.280007 0.177736
vt 0.327396 0.269905
vt 0.942184 0.622378
vt 0.751840 0.699841
vt 0.244885 0.848914
vt 0.477268 0.539809
vt 0.978779 0.298456
vt 0.439195 0.539809
vt 0.980698 0.481490
vt 0.664319 0.579321
vt 1.000000 0.809077
vt 0.486584 0.092169
vt 0.221473 0.722751
vt 0.724824 0.725393
vt 0.922536 0.201940
vt 0.248343 0.460756
vt 0.942184 0.891205
vt 0.079251 0.805124
vt 0.984110 0.809077
vt 0.135176 0.948244
vt 0.191100 0.805124
vt 0.079251 0.948244
vt 0.910514 0.566864
vt 0.135175 0.932100
vt 0.936469 0.812892
vt 0.505894 0.631736
vt 0.207417 0.948134
vt 0.505894 0.727606
vt 0.950866 0.423744
vt 0.207417 0.948244
vt 0.907326 0.946591
vt 0.891009 0.946591
vt 0.739926 0.785898
vt 0.464202 0.799688
vt 0.030587 0.000000
vt 0.910514 0.000000
vt 0.051289 0.805124
vt 0.910514 0.593620
vt 0.638911 0.579322
vt 0.644150 0.000000
vt 0.217756 0.614498
vt 0.837663 0.593620
vt 0.356795 0.790267
vt 0.248343 0.727653
vt 0.248343 0.602424
vt 0.345308 0.790267
vt 0.764812 0.924163
vt 0.396597 0.915496
vt 0.867390 0.798934
vt 0.340512 0.238240
vt 0.293953 0.191681
vt 0.406357 0.238240
vt 0.294019 0.947415
vt 0.426079 0.031664
vt 0.472638 0.078224
vt 0.360234 0.031664
vt 0.910514 0.201940
vt 0.910514 0.022640
vt 0.978006 0.184250
vt 0.874692 0.614684
vt 0.764812 0.795201
vt 0.764812 0.610951
vt 0.781899 0.616199
vt 0.110736 0.805124
vt 0.221473 0.614610
vt 0.221473 0.800115
vt 0.221473 0.800115
vt 0.874692 0.812892
vt 0.874692 0.633591
vt 0.942184 0.795201
vt 0.628128 0.789630
vt 0.518248 0.970147
vt 0.518248 0.785898
vt 0.535335 0.791146
vt 0.099912 0.619317
vt 0.110736 0.614498
vt 0.000000 0.619508
vt 0.000000 0.619508
vn 0.3256 0.5253 -0.7862
vn 0.0805 -0.9776 -0.1945
vn 0.3256 -0.5253 -0.7862
vn 0.3764 0.1807 -0.9087
vn 0.2243 -0.8103 -0.5414
vn 0.3764 -0.1807 -0.9087
vn 0.7862 -0.5253 -0.3256
vn 0.9087 0.1807 -0.3764
vn 0.5414 -0.8103 -0.2243
vn 0.9087 -0.1807 -0.3764
vn 0.1945 -0.9776 -0.0805
vn 0.5414 -0.8103 0.2243
vn 0.9087 -0.1807 0.3764
vn 0.1945 -0.9776 0.0805
vn 0.7862 -0.5253 0.3256
vn 0.9087 0.1807 0.3764
vn 0.3764 -0.1807 0.9087
vn 0.3256 0.5253 0.7862
vn 0.0805 -0.9776 0.1945
vn 0.3256 -0.5253 0.7862
vn 0.3764 0.1807 0.9087
vn 0.2243 -0.8103 0.5414
vn -0.0805 -0.9776 0.1945
vn -0.3256 -0.5253 0.7862
vn -0.3764 0.1807 0.9087
vn -0.2243 -0.8103 0.5414
vn -0.3764 -0.1807 0.9087
vn -0.3256 0.5253 0.7862
vn -0.9087 0.1807 0.3764
vn -0.5414 -0.8103 0.2243
vn -0.9087 -0.1807 0.3764
vn -0.1945 -0.9776 0.0805
vn -0.7862 -0.5253 0.3256
vn -0.5414 -0.8103 -0.2243
vn -0.9087 -0.1807 -0.3764
vn -0.1945 -0.9776 -0.0805
vn -0.7862 -0.5253 -0.3256
vn -0.9087 0.1807 -0.3764
vn -0.3256 0.5253 -0.7862
vn -0.0805 -0.9776 -0.1945
vn -0.3256 -0.5253 -0.7862
vn -0.3764 0.1807 -0.9087
vn -0.2243 -0.8103 -0.5414
vn -0.3764 -0.1807 -0.9087
vn 0.0000 -1.0000 -0.0000
vn -1.0000 0.0000 0.0000
vn -0.0000 1.0000 -0.0000
vn 0.5000 0.0000 0.8660
vn 0.5000 0.0000 -0.8660
vn -0.5000 0.0000 -0.8660
vn -0.5000 0.0000 0.8660
vn 1.0000 0.0000 0.0000
vn -0.9979 0.0643 0.0000
vn 0.4990 0.0643 0.8642
vn 0.4990 0.0643 -0.8642
vn -0.4990 0.0643 -0.8642
vn -0.4990 0.0643 0.8642
vn 0.9979 0.0643 0.0000
vn -0.7877 -0.6161 0.0000
vn 0.3938 -0.6161 0.6821
vn 0.3938 -0.6161 -0.6821
vn -0.3938 -0.6161 -0.6821
vn -0.3938 -0.6161 0.6821
vn 0.7877 -0.6161 0.0000
vn 0.9937 0.0934 -0.0624
vn 0.5414 0.8103 -0.2243
vn 0.7862 0.5253 -0.3256
vn 0.7862 0.5253 0.3256
vn 0.5414 0.8103 0.2243
vn 0.2243 0.8103 0.5414
vn -0.2243 0.8103 0.5414
vn -0.5414 0.8103 0.2243
vn -0.7862 0.5253 0.3256
vn -0.7862 0.5253 -0.3256
vn -0.5414 0.8103 -0.2243
vn -0.2243 0.8103 -0.5414
vn 0.2243 0.8103 -0.5414
vn 0.0000 0.8315 0.5556
vn 0.4472 -0.8944 0.0000
vn 0.9810 0.0000 -0.1938
s off
f 45/1/1 3/2/1 46/3/1
f 14/4/2 49/5/2 7/6/2
f 47/7/3 6/8/3 48/9/3
f 46/10/4 4/11/4 1/12/4
f 48/13/5 7/14/5 49/15/5
f 47/16/6 4/17/6 5/18/6
f 6/8/7 11/19/7 12/20/7
f 3/21/8 10/22/8 4/23/8
f 6/24/9 13/25/9 7/14/9
f 4/26/10 11/27/10 5/28/10
f 14/4/11 7/6/11 13/29/11
f 12/30/12 20/31/12 13/25/12
f 10/32/13 18/33/13 11/27/13
f 14/4/14 13/29/14 20/34/14
f 11/19/15 19/35/15 12/20/15
f 9/36/16 17/37/16 10/38/16
f 17/39/17 24/40/17 18/41/17
f 15/42/18 22/43/18 16/44/18
f 14/4/19 20/34/19 26/45/19
f 18/46/20 25/47/20 19/35/20
f 17/37/21 22/48/21 23/49/21
f 19/50/22 26/51/22 20/31/22
f 14/4/23 26/45/23 32/52/23
f 24/53/24 31/54/24 25/47/24
f 22/48/25 29/55/25 23/49/25
f 25/56/26 32/57/26 26/51/26
f 23/58/27 30/59/27 24/40/27
f 21/60/28 28/61/28 22/43/28
f 29/62/29 34/63/29 35/64/29
f 32/57/30 37/65/30 38/66/30
f 29/67/31 36/68/31 30/69/31
f 14/4/32 32/52/32 38/70/32
f 31/54/33 36/71/33 37/72/33
f 37/65/34 44/73/34 38/66/34
f 35/74/35 42/75/35 36/68/35
f 14/4/36 38/70/36 44/76/36
f 36/71/37 43/77/37 37/72/37
f 35/78/38 40/79/38 41/80/38
f 39/81/39 46/3/39 40/82/39
f 14/4/40 44/76/40 49/5/40
f 43/77/41 47/7/41 48/9/41
f 41/80/42 46/10/42 1/12/42
f 44/73/43 48/13/43 49/15/43
f 41/83/44 47/16/44 42/84/44
f 53/85/45 60/86/45 54/87/45
f 60/88/46 67/89/46 61/90/46
f 51/91/45 58/92/45 52/93/45
f 54/94/45 61/95/45 55/96/45
f 50/97/45 56/98/45 51/99/45
f 52/100/45 59/101/45 53/102/45
f 50/103/45 61/104/45 57/105/45
f 67/106/47 69/107/47 63/108/47
f 58/109/48 65/110/48 59/111/48
f 57/112/49 62/113/49 56/114/49
f 61/115/50 63/116/50 57/117/50
f 59/118/51 66/119/51 60/120/51
f 56/121/52 64/122/52 58/123/52
f 72/124/53 79/125/53 73/126/53
f 66/127/47 71/128/47 72/129/47
f 62/130/47 70/131/47 64/132/47
f 66/133/47 73/134/47 67/135/47
f 65/136/47 70/137/47 71/138/47
f 63/139/47 68/140/47 62/141/47
f 79/142/50 81/143/50 75/144/50
f 70/145/54 77/146/54 71/147/54
f 69/148/55 74/149/55 68/150/55
f 73/151/56 75/144/56 69/152/56
f 72/153/57 77/154/57 78/155/57
f 68/156/58 76/157/58 70/158/58
f 84/159/59 91/160/59 85/161/59
f 77/154/51 84/162/51 78/155/51
f 74/163/52 82/164/52 76/157/52
f 78/165/46 85/166/46 79/125/46
f 76/167/48 83/168/48 77/146/48
f 75/169/49 80/170/49 74/149/49
f 90/171/47 89/172/47 88/173/47
f 82/174/60 89/175/60 83/176/60
f 81/177/61 86/178/61 80/179/61
f 85/180/62 87/181/62 81/182/62
f 83/183/63 90/184/63 84/185/63
f 80/179/64 88/186/64 82/187/64
f 45/188/65 93/189/65 94/190/65
f 8/191/66 102/192/66 103/193/66
f 2/194/66 98/195/66 104/196/66
f 106/197/67 102/198/67 9/199/67
f 9/199/68 109/200/68 108/201/68
f 109/202/69 8/191/69 103/193/69
f 110/203/69 15/204/69 107/205/69
f 111/206/70 15/204/70 110/203/70
f 27/207/71 21/208/71 112/209/71
f 27/210/72 113/211/72 96/212/72
f 33/213/72 97/214/72 92/215/72
f 95/216/73 97/217/73 34/218/73
f 99/219/74 34/218/74 101/220/74
f 101/221/75 33/213/75 92/215/75
f 39/222/75 100/223/75 105/224/75
f 93/189/76 39/222/76 105/224/76
f 104/225/49 98/226/49 51/227/49
f 103/228/52 102/229/52 51/230/52
f 110/231/48 107/232/48 52/233/48
f 96/234/51 113/235/51 54/236/51
f 92/237/46 97/238/46 54/239/46
f 55/240/50 50/241/50 105/242/50
f 45/1/1 2/243/1 3/2/1
f 47/7/3 5/244/3 6/8/3
f 46/10/4 3/245/4 4/11/4
f 48/13/5 6/24/5 7/14/5
f 47/16/6 1/246/6 4/17/6
f 6/8/7 5/244/7 11/19/7
f 3/21/8 9/247/8 10/22/8
f 6/24/9 12/30/9 13/25/9
f 4/26/10 10/32/10 11/27/10
f 12/30/12 19/50/12 20/31/12
f 10/32/13 17/248/13 18/33/13
f 11/19/15 18/46/15 19/35/15
f 9/36/16 16/249/16 17/37/16
f 17/39/17 23/58/17 24/40/17
f 15/42/18 21/60/18 22/43/18
f 18/46/20 24/53/20 25/47/20
f 17/37/21 16/249/21 22/48/21
f 19/50/22 25/56/22 26/51/22
f 24/53/24 30/250/24 31/54/24
f 22/48/25 28/251/25 29/55/25
f 25/56/26 31/252/26 32/57/26
f 23/58/27 29/253/27 30/59/27
f 21/60/28 27/254/28 28/61/28
f 29/62/29 28/255/29 34/63/29
f 32/57/30 31/252/30 37/65/30
f 29/67/31 35/74/31 36/68/31
f 31/54/33 30/250/33 36/71/33
f 37/65/34 43/256/34 44/73/34
f 35/74/35 41/257/35 42/75/35
f 36/71/37 42/258/37 43/77/37
f 35/78/38 34/259/38 40/79/38
f 39/81/39 45/1/39 46/3/39
f 43/77/41 42/258/41 47/7/41
f 41/80/42 40/79/42 46/10/42
f 44/73/43 43/256/43 48/13/43
f 41/83/44 1/246/44 47/16/44
f 53/85/45 59/260/45 60/86/45
f 60/88/46 66/261/46 67/89/46
f 51/91/45 56/262/45 58/92/45
f 54/94/45 60/263/45 61/95/45
f 50/97/45 57/264/45 56/98/45
f 52/100/45 58/265/45 59/101/45
f 50/103/45 55/266/45 61/104/45
f 67/106/47 73/134/47 69/107/47
f 58/109/48 64/267/48 65/110/48
f 57/112/49 63/268/49 62/113/49
f 61/115/50 67/269/50 63/116/50
f 59/118/51 65/270/51 66/119/51
f 56/121/52 62/271/52 64/122/52
f 72/124/53 78/165/53 79/125/53
f 66/127/47 65/272/47 71/128/47
f 62/130/47 68/273/47 70/131/47
f 66/133/47 72/274/47 73/134/47
f 65/136/47 64/275/47 70/137/47
f 63/139/47 69/276/47 68/140/47
f 79/142/50 85/277/50 81/143/50
f 70/145/54 76/167/54 77/146/54
f 69/148/55 75/169/55 74/149/55
f 73/151/56 79/142/56 75/144/56
f 72/153/57 71/278/57 77/154/57
f 68/156/58 74/163/58 76/157/58
f 84/159/59 90/279/59 91/160/59
f 77/154/51 83/280/51 84/162/51
f 74/163/52 80/281/52 82/164/52
f 78/165/46 84/282/46 85/166/46
f 76/167/48 82/283/48 83/168/48
f 75/169/49 81/284/49 80/170/49
f 88/173/47 86/285/47 87/286/47
f 87/286/47 91/287/47 88/173/47
f 91/287/47 90/171/47 88/173/47
f 82/174/60 88/288/60 89/175/60
f 81/177/61 87/289/61 86/178/61
f 85/180/62 91/290/62 87/181/62
f 83/183/63 89/175/63 90/184/63
f 80/179/64 86/291/64 88/186/64
f 94/190/77 98/195/77 2/194/77
f 2/194/77 45/188/77 94/190/77
f 102/198/67 8/292/67 9/199/67
f 9/199/67 3/2/67 106/197/67
f 3/2/67 2/243/67 106/197/67
f 2/243/67 104/293/67 106/197/67
f 108/201/68 107/294/68 15/42/68
f 15/42/68 16/44/68 108/201/68
f 16/44/68 9/199/68 108/201/68
f 9/199/68 8/292/68 109/200/68
f 111/206/70 21/208/70 15/204/70
f 112/209/71 113/295/71 27/207/71
f 21/208/78 111/206/78 112/209/78
f 97/217/73 33/296/73 34/218/73
f 34/218/73 28/61/73 95/216/73
f 28/61/73 27/254/73 95/216/73
f 27/254/73 96/297/73 95/216/73
f 99/219/74 100/298/74 39/81/74
f 39/81/74 40/82/74 99/219/74
f 40/82/74 34/218/74 99/219/74
f 34/218/74 33/296/74 101/220/74
f 93/189/76 45/188/76 39/222/76
f 98/226/49 94/299/49 50/300/49
f 50/300/49 51/227/49 98/226/49
f 51/227/49 106/301/49 104/225/49
f 102/229/52 106/302/52 51/230/52
f 51/230/52 52/303/52 103/228/52
f 52/303/52 108/304/52 109/305/52
f 52/303/52 109/305/52 103/228/52
f 107/232/48 108/306/48 52/233/48
f 52/233/48 53/307/48 110/231/48
f 53/307/48 112/308/48 110/231/48
f 112/308/79 111/309/79 110/231/79
f 113/235/51 112/310/51 53/311/51
f 53/311/51 54/236/51 113/235/51
f 54/236/51 95/312/51 96/234/51
f 97/238/46 95/313/46 54/239/46
f 54/239/46 55/314/46 92/237/46
f 55/314/46 99/315/46 101/316/46
f 55/314/46 101/316/46 92/237/46
f 100/317/50 99/318/50 55/240/50
f 50/241/80 94/319/80 93/320/80
f 105/242/50 100/317/50 55/240/50
f 50/241/50 93/320/50 105/242/50
