# Blender v2.92.0 OBJ File: 'robot_lowerArm.blend'
# www.blender.org
o FirstArm_Cylinder.001
v 0.000000 0.000000 -0.207859
v 0.103929 0.146978 -0.103929
v 0.135790 0.079544 -0.135790
v 0.146978 0.000000 -0.146979
v 0.135790 -0.079544 -0.135790
v 0.103929 -0.146978 -0.103929
v 0.056246 -0.192037 -0.056246
v 0.146978 0.146978 -0.000000
v 0.192037 0.079544 -0.000000
v 0.207859 0.000000 -0.000000
v 0.192037 -0.079544 -0.000000
v 0.146978 -0.146978 -0.000000
v 0.079544 -0.192037 -0.000000
v 0.000000 -0.207859 -0.000000
v 0.103929 0.146978 0.103929
v 0.135790 0.079544 0.135790
v 0.146978 0.000000 0.146978
v 0.135790 -0.079544 0.135790
v 0.103929 -0.146978 0.103929
v 0.056246 -0.192037 0.056246
v 0.000000 0.079544 0.192037
v 0.000000 0.000000 0.207859
v 0.000000 -0.079544 0.192037
v 0.000000 -0.146978 0.146978
v 0.000000 -0.192037 0.079544
v -0.103929 0.146978 0.103929
v -0.135790 0.079544 0.135790
v -0.146978 0.000000 0.146978
v -0.135790 -0.079544 0.135790
v -0.103929 -0.146978 0.103929
v -0.056246 -0.192037 0.056246
v -0.146978 0.146978 -0.000000
v -0.192037 0.079544 -0.000000
v -0.207859 0.000000 -0.000000
v -0.192037 -0.079544 -0.000000
v -0.146978 -0.146978 -0.000000
v -0.079544 -0.192037 -0.000000
v -0.103929 0.146978 -0.103929
v -0.135790 0.079544 -0.135790
v -0.146978 0.000000 -0.146978
v -0.135790 -0.079544 -0.135790
v -0.103929 -0.146978 -0.103929
v -0.056246 -0.192037 -0.056246
v -0.000000 0.079544 -0.192037
v -0.000000 -0.079544 -0.192037
v -0.000000 -0.146978 -0.146978
v -0.000000 -0.192037 -0.079544
v 0.000000 0.687324 -0.152330
v 0.131922 0.687324 -0.076165
v 0.131922 0.687324 0.076165
v -0.000000 0.687324 0.152330
v -0.131922 0.687324 0.076165
v -0.131922 0.687324 -0.076165
v 0.164438 0.687324 -0.094938
v 0.000000 0.687324 -0.189877
v 0.164438 0.687324 0.094938
v -0.000000 0.687324 0.189877
v -0.164438 0.687324 0.094938
v -0.164438 0.687324 -0.094938
v 0.164438 0.749306 -0.094938
v 0.000000 0.749306 -0.189877
v 0.164438 0.749306 0.094938
v -0.000000 0.749306 0.189877
v -0.164438 0.749306 0.094938
v -0.164438 0.749306 -0.094938
v 0.137381 0.749306 -0.079317
v 0.000000 0.749306 -0.158634
v 0.137381 0.749306 0.079317
v -0.000000 0.749306 0.158634
v -0.137381 0.749306 0.079317
v -0.137381 0.749306 -0.079317
v 0.137381 0.807885 -0.079317
v 0.000000 0.807885 -0.158634
v 0.137381 0.807885 0.079317
v -0.000000 0.807885 0.158634
v -0.137381 0.807885 0.079317
v -0.137381 0.807885 -0.079317
v 0.160544 0.807885 -0.092690
v 0.000000 0.807885 -0.185380
v 0.160544 0.807885 0.092690
v -0.000000 0.807885 0.185380
v -0.160544 0.807885 0.092690
v -0.160544 0.807885 -0.092690
v 0.160544 0.868007 -0.092690
v 0.000000 0.868007 -0.185380
v 0.160544 0.868007 0.092690
v -0.000000 0.868007 0.185380
v -0.160544 0.868007 0.092690
v -0.160544 0.868007 -0.092690
v 0.126442 0.868007 -0.073001
v 0.000000 0.868007 -0.146003
v 0.126442 0.868007 0.073001
v -0.000000 0.868007 0.146003
v -0.126442 0.868007 0.073001
v -0.126442 0.868007 -0.073001
v 0.074329 1.818396 -0.042914
v 0.000000 1.818396 -0.085828
v 0.074329 1.818396 0.042914
v -0.000000 1.818396 0.085828
v -0.074329 1.818396 0.042914
v -0.074329 1.818396 -0.042914
v 0.106785 1.885038 -0.061652
v 0.000000 1.885038 -0.123305
v 0.106785 1.885038 0.061652
v -0.000000 1.885038 0.123305
v -0.106785 1.885038 0.061652
v -0.106785 1.885038 -0.061652
v 0.106785 1.909920 -0.061652
v 0.000000 1.909920 -0.123305
v 0.106785 1.909920 0.061652
v -0.000000 1.909920 0.123305
v -0.106785 1.909920 0.061652
v -0.106785 1.909920 -0.061652
v 0.032804 0.146978 -0.133391
v 0.000000 0.138969 -0.152330
v -0.000000 0.138969 -0.152330
v -0.131922 0.146978 0.036350
v -0.110246 0.146978 0.088679
v -0.096573 0.153930 0.096573
v -0.131922 0.157039 -0.000000
v 0.096573 0.153930 -0.096573
v -0.131922 0.122297 0.076165
v 0.131922 0.146978 -0.036350
v 0.131922 0.157039 -0.000000
v 0.110246 0.146978 -0.088679
v 0.131922 0.122297 -0.076165
v -0.131922 0.122297 -0.076165
v -0.110246 0.146978 -0.088679
v -0.131922 0.146978 -0.036350
v -0.096573 0.153930 -0.096573
v 0.131922 0.146978 0.036350
v 0.110246 0.146978 0.088679
v 0.131922 0.122297 0.076165
v -0.032804 0.146978 -0.133391
v 0.096573 0.153930 0.096573
v 0.032804 0.146978 0.133390
v 0.000000 0.138969 0.152330
v -0.032804 0.146978 0.133390
v -0.000000 0.138969 0.152330
vt 0.428321 0.249159
vt 0.459076 0.323408
vt 0.397566 0.323408
vt 0.502570 0.428412
vt 0.371493 0.386354
vt 0.485148 0.386354
vt 0.208303 0.825275
vt 0.193534 0.670660
vt 0.208303 0.664542
vt 0.508687 0.443182
vt 0.354072 0.428412
vt 0.586172 0.179253
vt 0.455096 0.137194
vt 0.568751 0.137194
vt 0.564800 0.807805
vt 0.579570 0.653189
vt 0.579570 0.813923
vt 0.542678 0.074249
vt 0.481168 0.074249
vt 0.431557 0.194022
vt 0.437674 0.179253
vt 0.511923 0.000000
vt 0.552181 0.354163
vt 0.657185 0.378801
vt 0.600357 0.402340
vt 0.519991 0.321973
vt 0.657185 0.249159
vt 0.657185 0.265145
vt 0.657185 0.459167
vt 0.657185 0.310669
vt 0.056113 0.819158
vt 0.070882 0.664542
vt 0.070882 0.825275
vt 0.321466 0.664542
vt 0.166851 0.649773
vt 0.315349 0.649773
vt 0.241100 0.470520
vt 0.271855 0.544769
vt 0.210345 0.544769
vt 0.297927 0.607714
vt 0.184272 0.607714
vt 0.326610 0.819158
vt 0.341380 0.664542
vt 0.341380 0.825275
vt 0.740788 0.210008
vt 0.683960 0.153180
vt 0.740788 0.129641
vt 0.635784 0.105004
vt 0.740788 0.015986
vt 0.740788 0.061510
vt 0.835853 0.619901
vt 0.821084 0.465285
vt 0.835853 0.459167
vt 0.592290 0.061510
vt 0.603594 0.072814
vt 0.141764 0.825275
vt 0.126995 0.670660
vt 0.141764 0.664542
vt 0.137194 0.607714
vt 0.049612 0.544769
vt 0.111122 0.544769
vt 0.160733 0.664542
vt 0.006118 0.649773
vt 0.154616 0.649773
vt 0.080367 0.470520
vt 0.023539 0.607714
vt 0.645882 0.596362
vt 0.558299 0.533416
vt 0.619809 0.533416
vt 0.669420 0.653189
vt 0.514805 0.638420
vt 0.663303 0.638420
vt 0.589054 0.459167
vt 0.532226 0.596362
vt 0.650452 0.813923
vt 0.635683 0.659307
vt 0.650452 0.653189
vt 0.428321 0.443182
vt 0.459076 0.517431
vt 0.397566 0.517431
vt 0.502570 0.622434
vt 0.371493 0.580376
vt 0.485148 0.580376
vt 0.274841 0.825275
vt 0.260072 0.670660
vt 0.274841 0.664542
vt 0.508687 0.637204
vt 0.354072 0.622434
vt 0.883433 0.018968
vt 0.916286 0.191840
vt 0.883433 0.172872
vt 0.487850 0.637520
vt 0.493257 0.733324
vt 0.482303 0.733641
vt 0.913575 0.792773
vt 0.880722 0.619901
vt 0.913575 0.638868
vt 0.916286 0.018968
vt 0.949139 0.191840
vt 0.916286 0.172872
vt 0.906460 0.268127
vt 0.873607 0.440999
vt 0.873607 0.249159
vt 0.906460 0.268127
vt 0.939313 0.440999
vt 0.906460 0.422032
vt 0.946428 0.638868
vt 0.913575 0.811741
vt 0.913575 0.619901
vt 0.429966 0.982948
vt 0.402629 0.806892
vt 0.429966 0.791108
vt 0.856566 0.460115
vt 0.867483 0.555448
vt 0.856566 0.556395
vt 0.655998 0.653506
vt 0.661405 0.749310
vt 0.650452 0.749627
vt 0.498803 0.925084
vt 0.487850 0.925401
vt 0.757331 0.958817
vt 0.746373 0.766977
vt 0.757331 0.766977
vt 0.666952 0.941070
vt 0.655998 0.941387
vt 0.878073 0.460063
vt 0.888391 0.539605
vt 0.878073 0.540501
vt 0.983960 0.440999
vt 0.956623 0.264943
vt 0.983960 0.249159
vt 0.375291 0.982948
vt 0.347954 0.806892
vt 0.375291 0.791108
vt 0.976476 0.000000
vt 0.949139 0.176057
vt 0.949139 0.015783
vt 0.946428 0.619901
vt 0.973765 0.795957
vt 0.946428 0.811741
vt 0.402629 0.967165
vt 0.375291 0.982948
vt 0.976476 0.013512
vt 0.999879 0.187297
vt 0.976476 0.173785
vt 0.939313 0.489570
vt 0.956623 0.569707
vt 0.946266 0.569707
vt 0.939313 0.329296
vt 0.949669 0.489570
vt 0.856566 0.619441
vt 0.846210 0.459167
vt 0.856566 0.459167
vt 0.846210 0.619441
vt 0.835853 0.459167
vt 0.846210 0.459167
vt 0.946266 0.249159
vt 0.949669 0.329296
vt 0.979180 0.620208
vt 0.984390 0.713745
vt 0.973765 0.714052
vt 0.927528 0.825252
vt 0.950931 0.999038
vt 0.927528 0.985526
vt 0.869670 0.980983
vt 0.846267 0.807198
vt 0.869670 0.820709
vt 0.344869 0.484032
vt 0.321466 0.657817
vt 0.321466 0.470520
vt 0.904125 0.811741
vt 0.927528 0.825252
vt 0.880722 0.985526
vt 0.904125 0.811740
vt 0.904125 0.999038
vt 0.873607 0.436457
vt 0.839152 0.269052
vt 0.873607 0.249160
vt 0.983960 0.343311
vt 1.000000 0.530223
vt 0.989375 0.530530
vt 0.767960 0.954274
vt 0.757331 0.766977
vt 0.767960 0.766977
vt 0.989805 0.900964
vt 0.979180 0.901271
vt 0.989375 0.249467
vt 0.994585 0.343004
vt 0.867483 0.460086
vt 0.878073 0.553168
vt 0.867483 0.554087
vt 0.000000 0.323070
vt 0.173977 0.435200
vt 0.004265 0.470520
vt 0.848978 0.000000
vt 0.814524 0.167405
vt 0.814524 0.019893
vt 0.447848 0.637204
vt 0.482303 0.804608
vt 0.447848 0.824501
vt 0.839152 0.436457
vt 0.804697 0.269052
vt 0.839152 0.249159
vt 0.846267 0.619901
vt 0.880722 0.787305
vt 0.846267 0.807198
vt 0.883433 0.000000
vt 0.848978 0.167405
vt 0.848978 0.019893
vt 0.398765 0.167937
vt 0.323668 0.249160
vt 0.323668 0.211295
vt 0.804697 0.249159
vt 0.687584 0.419822
vt 0.657185 0.249159
vt 0.173977 0.323070
vt 0.347954 0.435200
vt 0.178242 0.470520
vt 0.004265 0.249159
vt 0.171470 0.348521
vt 0.740788 0.179982
vt 0.814524 0.000000
vt 0.814524 0.173349
vt 0.178242 0.249160
vt 0.345447 0.348521
vt 0.498803 0.699751
vt 0.506803 0.824151
vt 0.502405 0.824278
vt 0.398765 0.081222
vt 0.323668 0.000000
vt 0.431557 0.062290
vt 0.248570 0.081222
vt 0.215778 0.186870
vt 0.215778 0.062290
vt 0.248570 0.167937
vt 0.431557 0.186870
vt 0.323668 0.037865
vt 0.215778 0.186870
vt 0.107889 0.249160
vt 0.000000 0.062290
vt 0.345778 0.789122
vt 0.341379 0.664542
vt 0.345778 0.664542
vt 0.429966 0.853656
vt 0.437965 0.978056
vt 0.433568 0.978183
vt 0.502405 0.637331
vt 0.503201 0.699624
vt 0.740788 0.180362
vt 0.745171 0.242506
vt 0.740788 0.242886
vt 0.433568 0.791236
vt 0.434363 0.853529
vt 0.193534 0.819158
vt 0.156470 0.803805
vt 0.156470 0.803805
vt 0.141764 0.692103
vt 0.151475 0.688081
vt 0.151475 0.765862
vt 0.522742 0.676728
vt 0.522742 0.716480
vt 0.508687 0.682550
vt 0.522742 0.790384
vt 0.513031 0.786362
vt 0.522742 0.773706
vt 0.564800 0.659307
vt 0.538136 0.753645
vt 0.029448 0.724820
vt 0.014054 0.761984
vt 0.014054 0.801736
vt 0.000000 0.795915
vt 0.004344 0.692103
vt 0.014054 0.688081
vt 0.014054 0.704758
vt 0.284552 0.801736
vt 0.284552 0.723955
vt 0.274841 0.797714
vt 0.769315 0.486728
vt 0.779025 0.482706
vt 0.779025 0.560487
vt 0.821084 0.613783
vt 0.084937 0.785059
vt 0.084937 0.801736
vt 0.075226 0.797714
vt 0.084937 0.688081
vt 0.084937 0.727833
vt 0.070882 0.693902
vt 0.126995 0.819158
vt 0.100331 0.764997
vt 0.609018 0.713467
vt 0.635683 0.807805
vt 0.593624 0.750632
vt 0.593624 0.790384
vt 0.579570 0.784562
vt 0.593624 0.676728
vt 0.593624 0.693406
vt 0.583913 0.680750
vt 0.260072 0.819158
vt 0.218013 0.801736
vt 0.218013 0.723955
vt 0.208303 0.797714
vt 0.789934 0.627282
vt 0.827132 0.629281
vt 0.846267 0.726472
vt 0.441706 0.714156
vt 0.443485 0.750882
vt 0.347954 0.791108
vt 0.669420 0.863924
vt 0.688556 0.770054
vt 0.725754 0.774510
vt 0.763722 0.654311
vt 0.764951 0.728706
vt 0.669420 0.766977
vt 0.807791 0.823563
vt 0.789428 0.823748
vt 0.769315 0.726472
vt 0.669420 0.459167
vt 0.764951 0.497438
vt 0.763722 0.571834
vt 0.347954 0.443182
vt 0.592290 0.194022
vt 0.508687 0.310669
vt 0.056113 0.670660
vt 0.160733 0.664542
vt 0.326610 0.670660
vt 0.740788 0.000000
vt 0.000000 0.664542
vt 0.508687 0.653189
vt 0.347954 0.637204
vt 0.916286 0.000000
vt 0.498803 0.637203
vt 0.880722 0.811741
vt 0.949139 0.000000
vt 0.906460 0.422032
vt 0.939313 0.249159
vt 0.946428 0.792773
vt 0.402629 0.967165
vt 0.867483 0.459167
vt 0.666952 0.653189
vt 0.746373 0.958817
vt 0.888391 0.459167
vt 0.956623 0.425216
vt 0.347954 0.967165
vt 0.976476 0.191840
vt 0.973765 0.635684
vt 0.402629 0.806892
vt 0.999879 0.000000
vt 0.846210 0.619441
vt 0.835853 0.619441
vt 0.956623 0.249159
vt 0.989805 0.619900
vt 0.950931 0.811740
vt 0.846267 0.994495
vt 0.344869 0.644306
vt 0.904125 0.999038
vt 0.880722 0.825252
vt 0.839152 0.416564
vt 0.757331 0.954274
vt 1.000000 0.249159
vt 0.878073 0.459167
vt 0.848978 0.187297
vt 0.482303 0.657096
vt 0.804697 0.416564
vt 0.880722 0.639793
vt 0.883433 0.187297
vt 0.774299 0.419822
vt 0.173977 0.305073
vt 0.771178 0.003899
vt 0.347954 0.305073
vt 0.000000 0.186870
vt 0.107889 0.000000
vt 0.215778 0.062290
vt 0.341379 0.789122
vt 0.506803 0.637204
vt 0.745171 0.179982
vt 0.437965 0.791108
vt 0.289547 0.686012
vt 0.784021 0.598431
vt 0.784021 0.598431
vt 0.223009 0.686012
vt 0.846267 0.629525
vt 0.769315 0.719795
vt 0.769315 0.619900
vt 0.781958 0.625361
vt 0.447848 0.791108
vt 0.347954 0.637204
vt 0.447848 0.637204
vt 0.443485 0.677430
vt 0.733729 0.773974
vt 0.746373 0.770707
vt 0.746373 0.870601
vt 0.669420 0.766977
vt 0.669420 0.766977
vt 0.766367 0.766977
vt 0.669420 0.613072
vt 0.769315 0.613072
vt 0.764951 0.638360
vt 0.769315 0.826366
vt 0.846267 0.733150
vt 0.846267 0.833044
vt 0.826154 0.826935
vt 0.764951 0.587785
vt 0.769315 0.613072
vt 0.669420 0.613072
vt 0.766367 0.459167
vt 0.766367 0.459167
vn 0.0805 -0.9776 -0.1945
vn 0.3256 -0.5253 -0.7862
vn 0.3764 0.1807 -0.9087
vn 0.2243 -0.8103 -0.5414
vn 0.3764 -0.1807 -0.9087
vn 0.7862 -0.5253 -0.3256
vn 0.9087 0.1807 -0.3764
vn 0.5414 -0.8103 -0.2243
vn 0.9087 -0.1807 -0.3764
vn 0.1945 -0.9776 -0.0805
vn 0.5414 -0.8103 0.2243
vn 0.9087 -0.1807 0.3764
vn 0.1945 -0.9776 0.0805
vn 0.7862 -0.5253 0.3256
vn 0.9087 0.1807 0.3764
vn 0.3764 -0.1807 0.9087
vn 0.0805 -0.9776 0.1945
vn 0.3256 -0.5253 0.7862
vn 0.3764 0.1807 0.9087
vn 0.2243 -0.8103 0.5414
vn -0.0805 -0.9776 0.1945
vn -0.3256 -0.5253 0.7862
vn -0.3764 0.1807 0.9087
vn -0.2243 -0.8103 0.5414
vn -0.3764 -0.1807 0.9087
vn -0.9087 0.1807 0.3764
vn -0.5414 -0.8103 0.2243
vn -0.9087 -0.1807 0.3764
vn -0.1945 -0.9776 0.0805
vn -0.7862 -0.5253 0.3256
vn -0.5414 -0.8103 -0.2243
vn -0.9087 -0.1807 -0.3764
vn -0.1945 -0.9776 -0.0805
vn -0.7862 -0.5253 -0.3256
vn -0.9087 0.1807 -0.3764
vn -0.0805 -0.9776 -0.1945
vn -0.3256 -0.5253 -0.7862
vn -0.3764 0.1807 -0.9087
vn -0.2243 -0.8103 -0.5414
vn -0.3764 -0.1807 -0.9087
vn 0.0000 -1.0000 0.0000
vn -1.0000 0.0000 0.0000
vn 0.0000 1.0000 0.0000
vn 0.5000 0.0000 0.8660
vn 0.5000 0.0000 -0.8660
vn -0.5000 0.0000 -0.8660
vn -0.5000 0.0000 0.8660
vn 1.0000 0.0000 0.0000
vn -0.4993 0.0548 -0.8647
vn -0.8990 -0.4379 0.0000
vn -0.4992 0.0548 0.8647
vn 0.9985 0.0548 0.0000
vn -0.9985 0.0548 0.0000
vn 0.4993 0.0548 0.8647
vn 0.4992 0.0548 -0.8647
vn 0.4495 -0.4379 0.7786
vn 0.4495 -0.4379 -0.7786
vn -0.4495 -0.4379 -0.7786
vn -0.4495 -0.4379 0.7786
vn 0.8990 -0.4379 0.0000
vn 0.0000 0.5556 -0.8315
vn 0.2243 0.8103 -0.5414
vn 0.5414 0.8103 -0.2243
vn 0.7862 0.5253 -0.3256
vn 0.7862 0.5253 0.3256
vn 0.5414 0.8103 0.2243
vn 0.3256 0.5253 0.7862
vn 0.2243 0.8103 0.5414
vn -0.2243 0.8103 0.5414
vn -0.3256 0.5253 0.7862
vn -0.5414 0.8103 0.2243
vn -0.7862 0.5253 0.3256
vn -0.7862 0.5253 -0.3256
vn -0.5414 0.8103 -0.2243
vn -0.3256 0.5253 -0.7862
vn -0.2243 0.8103 -0.5414
vn -0.4992 0.0548 -0.8647
vn 0.4992 0.0548 0.8647
vn 0.3256 0.5253 -0.7862
vn 0.8429 0.2990 0.4474
vn 0.8000 -0.6000 0.0000
vn 0.0000 0.0000 -1.0000
s off
f 14/1/1 47/2/1 7/3/1
f 45/4/2 6/5/2 46/6/2
f 1/7/3 3/8/3 4/9/3
f 46/6/4 7/3/4 47/2/4
f 1/10/5 5/11/5 45/4/5
f 5/12/6 12/13/6 6/14/6
f 3/15/7 10/16/7 4/17/7
f 7/18/8 12/13/8 13/19/8
f 5/12/9 10/20/9 11/21/9
f 14/22/10 7/18/10 13/19/10
f 12/23/11 20/24/11 13/25/11
f 11/26/12 17/27/12 18/28/12
f 14/29/13 13/25/13 20/24/13
f 11/26/14 19/30/14 12/23/14
f 9/31/15 17/32/15 10/33/15
f 17/34/16 23/35/16 18/36/16
f 14/37/17 20/38/17 25/39/17
f 19/40/18 23/35/18 24/41/18
f 16/42/19 22/43/19 17/44/19
f 20/38/20 24/41/20 25/39/20
f 14/45/21 25/46/21 31/47/21
f 24/48/22 29/49/22 30/50/22
f 22/51/23 27/52/23 28/53/23
f 25/46/24 30/50/24 31/47/24
f 22/54/25 29/49/25 23/55/25
f 28/56/26 33/57/26 34/58/26
f 30/59/27 37/60/27 31/61/27
f 28/62/28 35/63/28 29/64/28
f 14/65/29 31/61/29 37/60/29
f 30/59/30 35/63/30 36/66/30
f 36/67/31 43/68/31 37/69/31
f 34/70/32 41/71/32 35/72/32
f 14/73/33 37/69/33 43/68/33
f 35/72/34 42/74/34 36/67/34
f 34/75/35 39/76/35 40/77/35
f 14/78/36 43/79/36 47/80/36
f 41/81/37 46/82/37 42/83/37
f 40/84/38 44/85/38 1/86/38
f 42/83/39 47/80/39 43/79/39
f 40/87/40 45/88/40 41/81/40
f 51/89/41 58/90/41 52/91/41
f 58/92/42 65/93/42 59/94/42
f 49/95/41 56/96/41 50/97/41
f 52/98/41 59/99/41 53/100/41
f 49/101/41 55/102/41 54/103/41
f 50/104/41 57/105/41 51/106/41
f 48/107/41 59/108/41 55/109/41
f 63/110/43 70/111/43 64/112/43
f 56/113/44 63/114/44 57/115/44
f 55/116/45 60/117/45 54/118/45
f 59/94/46 61/119/46 55/120/46
f 57/121/47 64/122/47 58/123/47
f 54/118/48 62/124/48 56/125/48
f 68/126/44 75/127/44 69/128/44
f 60/129/43 68/130/43 62/131/43
f 64/132/43 71/133/43 65/134/43
f 63/135/43 68/136/43 69/137/43
f 61/138/43 66/139/43 60/140/43
f 65/134/43 67/141/43 61/142/43
f 72/143/41 80/144/41 74/145/41
f 67/146/45 72/147/45 66/148/45
f 71/149/46 73/150/46 67/146/46
f 69/151/47 76/152/47 70/153/47
f 66/154/48 74/155/48 68/156/48
f 70/157/42 77/158/42 71/149/42
f 79/159/45 84/160/45 78/161/45
f 76/162/41 83/163/41 77/164/41
f 74/165/41 81/166/41 75/167/41
f 72/168/41 79/169/41 78/170/41
f 77/164/41 79/171/41 73/172/41
f 76/173/41 81/174/41 82/175/41
f 88/176/43 95/177/43 89/178/43
f 83/179/46 85/180/46 79/181/46
f 81/182/47 88/183/47 82/184/47
f 78/161/48 86/185/48 80/186/48
f 82/187/42 89/188/42 83/179/42
f 80/189/44 87/190/44 81/191/44
f 95/192/49 97/193/49 91/194/49
f 87/195/43 92/196/43 93/197/43
f 85/198/43 90/199/43 84/200/43
f 89/201/43 91/202/43 85/203/43
f 87/204/43 94/205/43 88/206/43
f 86/207/43 90/208/43 92/209/43
f 100/210/50 107/211/50 101/212/50
f 93/213/51 100/214/51 94/215/51
f 90/216/52 98/217/52 92/218/52
f 94/219/53 101/220/53 95/192/53
f 92/221/54 99/222/54 93/223/54
f 91/224/55 96/225/55 90/216/55
f 107/226/46 109/227/46 103/228/46
f 99/229/56 104/230/56 105/231/56
f 96/232/57 103/233/57 102/234/57
f 97/235/58 107/211/58 103/233/58
f 99/229/59 106/236/59 100/210/59
f 96/232/60 104/230/60 98/237/60
f 111/238/43 110/239/43 109/240/43
f 105/241/47 112/242/47 106/243/47
f 102/244/48 110/245/48 104/246/48
f 106/247/42 113/248/42 107/226/42
f 104/249/44 111/250/44 105/251/44
f 103/252/45 108/253/45 102/244/45
f 44/254/61 116/255/61 115/256/61
f 121/257/62 2/258/62 114/259/62
f 8/260/63 123/261/63 124/262/63
f 2/263/63 121/264/63 125/265/63
f 9/266/64 3/15/64 126/267/64
f 133/268/65 9/31/65 131/269/65
f 8/270/66 124/271/66 131/269/66
f 135/272/66 15/273/66 132/274/66
f 16/42/67 15/275/67 136/276/67
f 15/275/68 135/277/68 136/276/68
f 119/278/69 26/279/69 138/280/69
f 138/280/70 27/52/70 21/281/70
f 118/282/71 26/283/71 119/284/71
f 32/285/71 117/286/71 120/287/71
f 33/57/72 27/288/72 122/289/72
f 127/290/73 33/291/73 129/292/73
f 32/293/74 120/294/74 129/292/74
f 38/295/74 128/296/74 130/297/74
f 39/298/75 38/299/75 134/300/75
f 38/299/76 130/301/76 134/300/76
f 121/302/45 114/303/45 48/304/45
f 124/305/48 123/306/48 49/307/48
f 51/308/44 136/309/44 135/310/44
f 119/311/47 138/312/47 51/313/47
f 120/314/42 117/315/42 52/316/42
f 48/317/46 134/318/46 130/319/46
f 45/4/2 5/11/2 6/5/2
f 1/7/3 44/254/3 3/8/3
f 46/6/4 6/5/4 7/3/4
f 1/10/5 4/320/5 5/11/5
f 5/12/6 11/21/6 12/13/6
f 3/15/7 9/266/7 10/16/7
f 7/18/8 6/14/8 12/13/8
f 5/12/9 4/321/9 10/20/9
f 12/23/11 19/30/11 20/24/11
f 11/26/12 10/322/12 17/27/12
f 11/26/14 18/28/14 19/30/14
f 9/31/15 16/323/15 17/32/15
f 17/34/16 22/324/16 23/35/16
f 19/40/18 18/36/18 23/35/18
f 16/42/19 21/325/19 22/43/19
f 20/38/20 19/40/20 24/41/20
f 24/48/22 23/55/22 29/49/22
f 22/51/23 21/281/23 27/52/23
f 25/46/24 24/48/24 30/50/24
f 22/54/25 28/326/25 29/49/25
f 28/56/26 27/288/26 33/57/26
f 30/59/27 36/66/27 37/60/27
f 28/62/28 34/327/28 35/63/28
f 30/59/30 29/64/30 35/63/30
f 36/67/31 42/74/31 43/68/31
f 34/70/32 40/328/32 41/71/32
f 35/72/34 41/71/34 42/74/34
f 34/75/35 33/291/35 39/76/35
f 41/81/37 45/88/37 46/82/37
f 40/84/38 39/298/38 44/85/38
f 42/83/39 46/82/39 47/80/39
f 40/87/40 1/329/40 45/88/40
f 51/89/41 57/330/41 58/90/41
f 58/92/42 64/331/42 65/93/42
f 49/95/41 54/332/41 56/96/41
f 52/98/41 58/333/41 59/99/41
f 49/101/41 48/334/41 55/102/41
f 50/104/41 56/335/41 57/105/41
f 48/107/41 53/336/41 59/108/41
f 63/110/43 69/337/43 70/111/43
f 56/113/44 62/338/44 63/114/44
f 55/116/45 61/339/45 60/117/45
f 59/94/46 65/93/46 61/119/46
f 57/121/47 63/340/47 64/122/47
f 54/118/48 60/117/48 62/124/48
f 68/126/44 74/341/44 75/127/44
f 60/129/43 66/342/43 68/130/43
f 64/132/43 70/343/43 71/133/43
f 63/135/43 62/344/43 68/136/43
f 61/138/43 67/345/43 66/139/43
f 65/134/43 71/346/43 67/141/43
f 72/143/41 78/347/41 80/144/41
f 67/146/45 73/150/45 72/147/45
f 71/149/46 77/158/46 73/150/46
f 69/151/47 75/348/47 76/152/47
f 66/154/48 72/349/48 74/155/48
f 70/157/42 76/350/42 77/158/42
f 79/159/45 85/351/45 84/160/45
f 76/162/41 82/352/41 83/163/41
f 74/165/41 80/353/41 81/166/41
f 72/168/41 73/354/41 79/169/41
f 77/164/41 83/355/41 79/171/41
f 76/173/41 75/356/41 81/174/41
f 88/176/43 94/357/43 95/177/43
f 83/179/46 89/188/46 85/180/46
f 81/182/47 87/358/47 88/183/47
f 78/161/48 84/160/48 86/185/48
f 82/187/42 88/359/42 89/188/42
f 80/189/44 86/360/44 87/190/44
f 95/192/77 101/220/77 97/193/77
f 87/195/43 86/361/43 92/196/43
f 85/198/43 91/362/43 90/199/43
f 89/201/43 95/363/43 91/202/43
f 87/204/43 93/364/43 94/205/43
f 86/207/43 84/365/43 90/208/43
f 100/210/50 106/236/50 107/211/50
f 93/213/51 99/366/51 100/214/51
f 90/216/52 96/225/52 98/217/52
f 94/219/53 100/367/53 101/220/53
f 92/221/78 98/368/78 99/222/78
f 91/224/55 97/369/55 96/225/55
f 107/226/46 113/248/46 109/227/46
f 99/229/56 98/237/56 104/230/56
f 96/232/57 97/235/57 103/233/57
f 97/235/58 101/212/58 107/211/58
f 99/229/59 105/231/59 106/236/59
f 96/232/60 102/234/60 104/230/60
f 110/239/43 108/370/43 109/240/43
f 109/240/43 113/371/43 112/372/43
f 112/372/43 111/238/43 109/240/43
f 105/241/47 111/373/47 112/242/47
f 102/244/48 108/253/48 110/245/48
f 106/247/42 112/374/42 113/248/42
f 104/249/44 110/375/44 111/250/44
f 103/252/45 109/376/45 108/253/45
f 115/256/79 114/259/79 44/254/79
f 114/259/79 2/258/79 3/8/79
f 44/254/79 114/259/79 3/8/79
f 123/261/64 8/260/64 9/266/64
f 3/15/64 2/263/64 125/265/64
f 126/267/64 123/261/64 9/266/64
f 3/15/64 125/265/64 126/267/64
f 133/268/65 132/274/65 16/323/65
f 132/274/65 15/273/65 16/323/65
f 16/323/65 9/31/65 133/268/65
f 9/31/65 8/270/65 131/269/65
f 136/276/67 137/377/67 21/325/67
f 21/325/67 16/42/67 136/276/67
f 138/280/70 26/279/70 27/52/70
f 21/281/80 137/378/80 139/379/80
f 139/379/70 138/280/70 21/281/70
f 117/286/72 32/285/72 33/57/72
f 27/288/72 26/283/72 118/282/72
f 122/289/72 117/286/72 33/57/72
f 27/288/72 118/282/72 122/289/72
f 127/290/73 128/296/73 39/76/73
f 128/296/73 38/295/73 39/76/73
f 39/76/73 33/291/73 127/290/73
f 33/291/73 32/293/73 129/292/73
f 134/300/75 116/380/75 44/85/75
f 44/85/75 39/298/75 134/300/75
f 114/303/45 115/381/45 48/304/45
f 48/304/45 49/382/45 121/302/45
f 49/382/45 126/383/45 125/384/45
f 49/382/45 125/384/45 121/302/45
f 123/306/48 126/385/48 49/307/48
f 49/307/48 50/386/48 124/305/48
f 50/386/48 133/387/48 131/388/48
f 50/386/48 131/388/48 124/305/48
f 132/389/44 133/390/44 50/391/44
f 50/391/44 51/308/44 135/310/44
f 51/308/44 139/392/44 136/309/44
f 139/392/81 137/393/81 136/309/81
f 135/310/44 132/389/44 50/391/44
f 138/312/47 139/394/47 51/313/47
f 51/313/47 52/395/47 119/311/47
f 52/395/47 122/396/47 118/397/47
f 52/395/47 118/397/47 119/311/47
f 117/315/42 122/398/42 52/316/42
f 52/316/42 53/399/42 120/314/42
f 53/399/42 127/400/42 129/401/42
f 53/399/42 129/401/42 120/314/42
f 128/402/46 127/403/46 53/404/46
f 48/317/82 115/405/82 116/406/82
f 48/317/46 116/406/46 134/318/46
f 128/402/46 53/404/46 130/319/46
f 53/404/46 48/317/46 130/319/46
