# Blender v2.92.0 OBJ File: 'cube_holes_withTexture.blend'
# www.blender.org
o Cube
v 1.000000 1.000000 -1.000000
v 1.000000 -1.000000 -1.000000
v 1.000000 1.000000 1.000000
v 1.000000 -1.000000 1.000000
v -1.000000 1.000000 -1.000000
v -1.000000 -1.000000 -1.000000
v -1.000000 1.000000 1.000000
v -1.000000 -1.000000 1.000000
v -1.000000 -0.644586 -0.627858
v 1.000000 -0.644586 -0.627858
v -1.000000 0.644586 -0.627858
v 1.000000 0.644586 -0.627858
v -1.000000 -0.644586 0.627858
v 1.000000 -0.644586 0.627858
v 1.000000 0.644586 0.627858
v -1.000000 0.644586 0.627858
v 0.000000 -1.000000 -0.506718
v 0.000000 -0.644586 -0.506718
v 0.000000 0.644586 -0.506718
v 0.000000 1.000000 -0.506718
v -0.193913 -1.000000 0.468146
v -0.193913 -0.644586 0.468146
v -0.193913 0.644586 0.468146
v -0.193913 1.000000 0.468146
v 0.098856 -1.000000 -0.496981
v 0.098856 -0.644586 -0.496981
v 0.098856 0.644586 -0.496981
v 0.098856 1.000000 -0.496981
v -0.281518 -1.000000 0.421320
v -0.281518 -0.644586 0.421320
v -0.281518 0.644586 0.421320
v -0.281518 1.000000 0.421320
v 0.193912 -1.000000 -0.468146
v 0.193912 -0.644586 -0.468146
v 0.193912 0.644586 -0.468146
v 0.193912 1.000000 -0.468146
v -0.358304 -1.000000 0.358303
v -0.358304 -0.644586 0.358303
v -0.358304 0.644586 0.358303
v -0.358304 1.000000 0.358303
v 0.281517 -1.000000 -0.421320
v 0.281517 -0.644586 -0.421320
v 0.281517 0.644586 -0.421320
v 0.281517 1.000000 -0.421320
v -0.421321 -1.000000 0.281517
v -0.421321 -0.644586 0.281517
v -0.421321 0.644586 0.281517
v -0.421321 1.000000 0.281517
v 0.358304 -1.000000 -0.358304
v 0.358304 -0.644586 -0.358304
v 0.358304 0.644586 -0.358304
v 0.358304 1.000000 -0.358304
v -0.468146 -1.000000 0.193912
v -0.468146 -0.644586 0.193912
v -0.468146 0.644586 0.193912
v -0.468146 1.000000 0.193912
v 0.421320 -1.000000 -0.281517
v 0.421320 -0.644586 -0.281517
v 0.421320 0.644586 -0.281517
v 0.421320 1.000000 -0.281517
v -0.496981 -1.000000 0.098855
v -0.496981 -0.644586 0.098855
v -0.496981 0.644586 0.098855
v -0.496981 1.000000 0.098855
v 0.468146 -1.000000 -0.193912
v 0.468146 -0.644586 -0.193912
v 0.468146 0.644586 -0.193912
v 0.468146 1.000000 -0.193912
v -0.506718 -1.000000 -0.000000
v -0.506718 -0.644586 -0.000000
v -0.506718 0.644586 -0.000000
v -0.506718 1.000000 -0.000000
v 0.496981 -1.000000 -0.098856
v 0.496981 -0.644586 -0.098856
v 0.496981 0.644586 -0.098856
v 0.496981 1.000000 -0.098856
v -0.496981 -1.000000 -0.098856
v -0.496981 -0.644586 -0.098856
v -0.496981 0.644586 -0.098856
v -0.496981 1.000000 -0.098856
v 0.506718 -1.000000 -0.000000
v 0.506718 -0.644586 -0.000000
v 0.506718 0.644586 -0.000000
v 0.506718 1.000000 -0.000000
v -0.468146 -1.000000 -0.193913
v -0.468146 -0.644586 -0.193913
v -0.468146 0.644586 -0.193913
v -0.468146 1.000000 -0.193913
v 0.496981 -1.000000 0.098856
v 0.496981 -0.644586 0.098856
v 0.496981 0.644586 0.098856
v 0.496981 1.000000 0.098856
v -0.421320 -1.000000 -0.281518
v -0.421320 -0.644586 -0.281518
v -0.421320 0.644586 -0.281518
v -0.421320 1.000000 -0.281518
v 0.468146 -1.000000 0.193912
v 0.468146 -0.644586 0.193912
v 0.468146 0.644586 0.193912
v 0.468146 1.000000 0.193912
v -0.358303 -1.000000 -0.358304
v -0.358303 -0.644586 -0.358304
v -0.358303 0.644586 -0.358304
v -0.358303 1.000000 -0.358304
v 0.421320 -1.000000 0.281517
v 0.421320 -0.644586 0.281517
v 0.421320 0.644586 0.281517
v 0.421320 1.000000 0.281517
v -0.281517 -1.000000 -0.421321
v -0.281517 -0.644586 -0.421321
v -0.281517 0.644586 -0.421321
v -0.281517 1.000000 -0.421321
v 0.358304 -1.000000 0.358304
v 0.358304 -0.644586 0.358304
v 0.358304 0.644586 0.358304
v 0.358304 1.000000 0.358304
v -0.193912 -1.000000 -0.468146
v -0.193912 -0.644586 -0.468146
v -0.193912 0.644586 -0.468146
v -0.193912 1.000000 -0.468146
v 0.281517 -1.000000 0.421320
v 0.281517 -0.644586 0.421320
v 0.281517 0.644586 0.421320
v 0.281517 1.000000 0.421320
v -0.098855 -1.000000 -0.496981
v -0.098855 -0.644586 -0.496981
v 0.193912 -1.000000 0.468146
v -0.098855 0.644586 -0.496981
v 0.193912 -0.644586 0.468146
v -0.098855 1.000000 -0.496981
v 0.193912 0.644586 0.468146
v 0.193912 1.000000 0.468146
v 0.098856 -1.000000 0.496981
v 0.098856 -0.644586 0.496981
v 0.098856 0.644586 0.496981
v 0.098856 1.000000 0.496981
v -0.000000 -1.000000 0.506718
v -0.000000 -0.644586 0.506718
v -0.000000 0.644586 0.506718
v -0.000000 1.000000 0.506718
v -0.098856 -1.000000 0.496981
v -0.098856 -0.644586 0.496981
v -0.098856 0.644586 0.496981
v -0.098856 1.000000 0.496981
v 0.000000 0.535962 0.627858
v 0.000000 0.535962 1.000000
v 0.000000 0.535962 -1.000000
v 0.000000 0.535962 -0.627858
v 0.650672 -0.591035 0.627858
v 0.650672 -0.591035 1.000000
v 0.650672 -0.591035 -1.000000
v 0.650672 -0.591035 -0.627858
v -0.650672 -0.591035 1.000000
v -0.650672 -0.591035 0.627858
v -0.650672 -0.591035 -0.627858
v -0.650672 -0.591035 -1.000000
vt 0.000729 0.000200
vt 0.249500 0.054966
vt 0.057528 0.054634
vt 0.305959 0.306488
vt 0.000200 0.305959
vt 0.249160 0.252054
vt 0.306488 0.892948
vt 0.068592 0.845353
vt 0.251404 0.842154
vt 0.010224 0.606876
vt 0.301392 0.601780
vt 0.065307 0.657671
vt 0.229834 0.455272
vt 0.190246 0.461627
vt 0.191005 0.454522
vt 0.458509 0.415006
vt 0.445127 0.376011
vt 0.460400 0.375043
vt 0.228368 0.469830
vt 0.188093 0.468511
vt 0.451474 0.415420
vt 0.430409 0.379895
vt 0.224027 0.483851
vt 0.184614 0.474914
vt 0.444726 0.417165
vt 0.416790 0.386561
vt 0.216953 0.496733
vt 0.179930 0.480594
vt 0.438444 0.420224
vt 0.404782 0.395762
vt 0.196334 0.517515
vt 0.207440 0.507920
vt 0.428368 0.429721
vt 0.432949 0.424459
vt 0.388056 0.420408
vt 0.425061 0.435769
vt 0.167892 0.488672
vt 0.183233 0.524189
vt 0.169442 0.528565
vt 0.422908 0.442462
vt 0.155115 0.530069
vt 0.161139 0.490951
vt 0.422131 0.449513
vt 0.383789 0.434693
vt 0.140633 0.529166
vt 0.154125 0.491817
vt 0.422760 0.456620
vt 0.382281 0.449460
vt 0.126546 0.525453
vt 0.147113 0.491263
vt 0.424758 0.463478
vt 0.383720 0.464605
vt 0.113411 0.519023
vt 0.140371 0.489328
vt 0.428049 0.469817
vt 0.388120 0.479071
vt 0.101763 0.510087
vt 0.134156 0.486095
vt 0.432504 0.475389
vt 0.395280 0.492277
vt 0.092089 0.498977
vt 0.128705 0.481695
vt 0.437951 0.479980
vt 0.404870 0.503693
vt 0.084790 0.486129
vt 0.124231 0.476302
vt 0.444179 0.483419
vt 0.416443 0.512892
vt 0.080154 0.472051
vt 0.120907 0.470124
vt 0.450953 0.485579
vt 0.429478 0.519567
vt 0.078355 0.457290
vt 0.118865 0.463400
vt 0.458022 0.486386
vt 0.443424 0.523534
vt 0.079413 0.442239
vt 0.118191 0.456391
vt 0.465129 0.485815
vt 0.457722 0.524723
vt 0.083350 0.427612
vt 0.118919 0.449370
vt 0.472001 0.483922
vt 0.472254 0.523549
vt 0.090056 0.413927
vt 0.121033 0.442624
vt 0.478378 0.480770
vt 0.486211 0.519496
vt 0.099325 0.401689
vt 0.124460 0.436431
vt 0.484018 0.476469
vt 0.498978 0.512748
vt 0.134495 0.426416
vt 0.129076 0.431049
vt 0.519448 0.493034
vt 0.510011 0.503643
vt 0.111250 0.391981
vt 0.140760 0.422964
vt 0.526522 0.480867
vt 0.488586 0.470961
vt 0.491984 0.464684
vt 0.124779 0.384730
vt 0.147627 0.420836
vt 0.531002 0.467727
vt 0.139420 0.380187
vt 0.154848 0.420181
vt 0.494065 0.457849
vt 0.532799 0.454230
vt 0.154249 0.378502
vt 0.162310 0.420326
vt 0.155675 0.420024
vt 0.495013 0.450014
vt 0.532160 0.438319
vt 0.169549 0.380059
vt 0.168899 0.422017
vt 0.494666 0.444189
vt 0.528496 0.423972
vt 0.184066 0.384541
vt 0.175058 0.425047
vt 0.492901 0.437843
vt 0.522031 0.410630
vt 0.197296 0.391747
vt 0.180499 0.429298
vt 0.513003 0.398834
vt 0.489668 0.431708
vt 0.485050 0.426215
vt 0.208754 0.401384
vt 0.184981 0.434599
vt 0.501789 0.389086
vt 0.218012 0.413056
vt 0.188312 0.440736
vt 0.479195 0.421683
vt 0.488903 0.381743
vt 0.224738 0.426285
vt 0.190350 0.447465
vt 0.472283 0.418342
vt 0.474955 0.377023
vt 0.228714 0.440541
vt 0.465542 0.415976
vt 0.607606 0.304470
vt 0.602905 0.594145
vt 0.611558 0.824263
vt 0.611558 0.541901
vt 0.628661 0.683082
vt 0.788842 0.541900
vt 0.788842 0.824263
vt 0.771739 0.683082
vt 0.893920 0.359492
vt 0.611558 0.359492
vt 0.752739 0.342389
vt 0.611558 0.182209
vt 0.893921 0.182208
vt 0.752739 0.199311
vt 0.946860 0.367651
vt 0.894321 0.183925
vt 0.946860 0.183925
vt 0.999800 0.183925
vt 0.947260 0.367651
vt 0.947260 0.183925
vt 0.947260 0.551376
vt 0.999800 0.367651
vt 0.999800 0.551376
vt 0.894321 0.551376
vt 0.946860 0.551376
vt 0.999800 0.000200
vt 0.947260 0.000200
vt 0.894321 0.000200
vt 0.313195 0.602398
vt 0.459965 0.665489
vt 0.611158 0.883854
vt 0.370362 0.831425
vt 0.558868 0.826055
vt 0.306888 0.300918
vt 0.458071 0.232922
vt 0.611158 0.003752
vt 0.362238 0.062312
vt 0.310439 0.000200
vt 0.752739 0.374827
vt 0.893921 0.541497
vt 0.660878 0.533939
vt 0.844603 0.533938
vt 0.752740 0.166873
vt 0.893921 0.000202
vt 0.660878 0.007761
vt 0.611558 0.000200
vt 0.306487 0.000729
vt 0.057187 0.251722
vt 0.015320 0.898044
vt 0.248119 0.654471
vt 0.174083 0.485058
vt 0.395426 0.407476
vt 0.494667 0.450636
vt 0.649614 0.733668
vt 0.660455 0.742565
vt 0.660455 0.623599
vt 0.649614 0.632496
vt 0.640717 0.643336
vt 0.640717 0.722827
vt 0.634106 0.710459
vt 0.634106 0.655704
vt 0.630035 0.669125
vt 0.630035 0.697039
vt 0.672823 0.616988
vt 0.700200 0.754621
vt 0.672823 0.749176
vt 0.686243 0.753247
vt 0.686243 0.612917
vt 0.700200 0.611543
vt 0.714156 0.612917
vt 0.714156 0.753246
vt 0.727577 0.749176
vt 0.727576 0.616988
vt 0.739945 0.623599
vt 0.739945 0.742565
vt 0.750785 0.733668
vt 0.750785 0.632496
vt 0.759682 0.643337
vt 0.759682 0.722827
vt 0.766293 0.710459
vt 0.766293 0.655705
vt 0.770364 0.669125
vt 0.770364 0.697038
vt 0.818833 0.243473
vt 0.812222 0.231105
vt 0.681200 0.270850
vt 0.693257 0.231105
vt 0.686646 0.243473
vt 0.682575 0.256893
vt 0.822904 0.256894
vt 0.824278 0.270850
vt 0.822904 0.284807
vt 0.682575 0.284807
vt 0.686646 0.298227
vt 0.818833 0.298227
vt 0.812222 0.310595
vt 0.693257 0.310595
vt 0.702154 0.321436
vt 0.803325 0.321436
vt 0.792484 0.330333
vt 0.712994 0.330333
vt 0.725362 0.336944
vt 0.780116 0.336944
vt 0.766696 0.341014
vt 0.738783 0.341014
vt 0.702153 0.220264
vt 0.803325 0.220264
vt 0.792484 0.211368
vt 0.712994 0.211368
vt 0.725362 0.204757
vt 0.780116 0.204757
vt 0.766695 0.200686
vt 0.738783 0.200686
vt 0.894321 0.367651
vt 0.946860 0.000200
vt 0.321448 0.892107
vt 0.557907 0.064623
vt 0.611559 0.541500
vt 0.844603 0.007762
vn -1.0000 0.0000 0.0000
vn 1.0000 0.0000 0.0000
vn -0.0980 0.0000 0.9952
vn -0.2903 0.0000 0.9569
vn -0.4714 0.0000 0.8819
vn -0.6344 0.0000 0.7730
vn -0.7730 0.0000 0.6344
vn -0.8819 0.0000 0.4714
vn -0.9569 0.0000 0.2903
vn -0.9952 0.0000 0.0980
vn -0.9952 0.0000 -0.0980
vn -0.9569 0.0000 -0.2903
vn -0.8819 0.0000 -0.4714
vn -0.7730 0.0000 -0.6344
vn -0.6344 0.0000 -0.7730
vn -0.4714 0.0000 -0.8819
vn -0.2903 0.0000 -0.9569
vn -0.0980 0.0000 -0.9952
vn 0.0980 0.0000 -0.9952
vn 0.2903 0.0000 -0.9569
vn 0.4714 0.0000 -0.8819
vn 0.6344 0.0000 -0.7730
vn 0.7730 0.0000 -0.6344
vn 0.8819 0.0000 -0.4714
vn 0.9569 0.0000 -0.2903
vn 0.9952 0.0000 -0.0980
vn 0.9952 0.0000 0.0980
vn 0.9569 0.0000 0.2903
vn 0.8819 0.0000 0.4714
vn 0.7730 0.0000 0.6344
vn 0.6344 0.0000 0.7730
vn 0.4714 0.0000 0.8819
vn 0.2903 0.0000 0.9569
vn 0.0980 0.0000 0.9952
vn 0.0000 1.0000 -0.0000
vn 0.0000 -1.0000 0.0000
vn -0.8660 -0.5000 0.0000
vn 0.8660 -0.5000 0.0000
vn 0.0000 0.0000 1.0000
vn 0.0000 0.0000 -1.0000
s off
f 7/1/1 11/2/1 16/3/1
f 6/4/1 8/5/1 9/6/1
f 1/7/2 15/8/2 12/9/2
f 4/10/2 2/11/2 14/12/2
f 17/13/3 26/14/3 18/15/3
f 19/16/3 28/17/3 20/18/3
f 25/19/4 34/20/4 26/14/4
f 27/21/4 36/22/4 28/17/4
f 33/23/5 42/24/5 34/20/5
f 35/25/5 44/26/5 36/22/5
f 41/27/6 50/28/6 42/24/6
f 43/29/6 52/30/6 44/26/6
f 57/31/7 50/28/7 49/32/7
f 59/33/7 52/30/7 51/34/7
f 68/35/8 59/33/8 67/36/8
f 66/37/8 57/31/8 65/38/8
f 73/39/9 66/37/9 65/38/9
f 75/40/9 68/35/9 67/36/9
f 81/41/10 74/42/10 73/39/10
f 83/43/10 76/44/10 75/40/10
f 89/45/11 82/46/11 81/41/11
f 91/47/11 84/48/11 83/43/11
f 97/49/12 90/50/12 89/45/12
f 99/51/12 92/52/12 91/47/12
f 105/53/13 98/54/13 97/49/13
f 107/55/13 100/56/13 99/51/13
f 113/57/14 106/58/14 105/53/14
f 115/59/14 108/60/14 107/55/14
f 121/61/15 114/62/15 113/57/15
f 123/63/15 116/64/15 115/59/15
f 127/65/16 122/66/16 121/61/16
f 131/67/16 124/68/16 123/63/16
f 133/69/17 129/70/17 127/65/17
f 135/71/17 132/72/17 131/67/17
f 137/73/18 134/74/18 133/69/18
f 139/75/18 136/76/18 135/71/18
f 141/77/19 138/78/19 137/73/19
f 143/79/19 140/80/19 139/75/19
f 21/81/20 142/82/20 141/77/20
f 23/83/20 144/84/20 143/79/20
f 29/85/21 22/86/21 21/81/21
f 31/87/21 24/88/21 23/83/21
f 37/89/22 30/90/22 29/85/22
f 39/91/22 32/92/22 31/87/22
f 37/89/23 46/93/23 38/94/23
f 39/91/23 48/95/23 40/96/23
f 45/97/24 54/98/24 46/93/24
f 56/99/24 47/100/24 55/101/24
f 53/102/25 62/103/25 54/98/25
f 55/101/25 64/104/25 56/99/25
f 61/105/26 70/106/26 62/103/26
f 63/107/26 72/108/26 64/104/26
f 69/109/27 78/110/27 70/111/27
f 71/112/27 80/113/27 72/108/27
f 77/114/28 86/115/28 78/110/28
f 79/116/28 88/117/28 80/113/28
f 85/118/29 94/119/29 86/115/29
f 87/120/29 96/121/29 88/117/29
f 93/122/30 102/123/30 94/119/30
f 104/124/30 95/125/30 103/126/30
f 101/127/31 110/128/31 102/123/31
f 103/126/31 112/129/31 104/124/31
f 109/130/32 118/131/32 110/128/32
f 111/132/32 120/133/32 112/129/32
f 117/134/33 126/135/33 118/131/33
f 119/136/33 130/137/33 120/133/33
f 125/138/34 18/15/34 126/135/34
f 128/139/34 20/18/34 130/137/34
f 5/140/35 130/137/35 20/18/35
f 140/80/35 144/84/35 7/141/35
f 2/11/36 25/19/36 17/13/36
f 137/73/36 133/69/36 4/10/36
f 13/142/35 14/143/35 138/144/35
f 10/145/35 9/146/35 18/147/35
f 11/148/36 12/149/36 19/150/36
f 15/151/36 16/152/36 139/153/36
f 149/154/37 146/155/37 145/156/37
f 147/157/37 152/158/37 148/159/37
f 155/160/35 151/161/35 156/162/35
f 153/163/35 149/154/35 154/164/35
f 156/165/38 148/159/38 155/166/38
f 153/167/38 145/156/38 146/155/38
f 3/168/39 7/141/39 146/169/39
f 8/170/39 150/171/39 153/172/39
f 5/140/40 1/173/40 147/174/40
f 6/175/40 151/176/40 2/177/40
f 12/149/39 11/148/39 148/178/39
f 9/179/39 152/180/39 155/181/39
f 16/152/40 15/151/40 145/182/40
f 13/183/40 149/184/40 14/185/40
f 7/1/1 5/186/1 11/2/1
f 11/2/1 5/186/1 6/4/1
f 8/5/1 7/1/1 16/3/1
f 8/5/1 16/3/1 13/187/1
f 9/6/1 11/2/1 6/4/1
f 8/5/1 13/187/1 9/6/1
f 1/7/2 3/188/2 15/8/2
f 15/8/2 3/188/2 4/10/2
f 2/11/2 1/7/2 12/9/2
f 2/11/2 12/9/2 10/189/2
f 14/12/2 15/8/2 4/10/2
f 2/11/2 10/189/2 14/12/2
f 17/13/3 25/19/3 26/14/3
f 19/16/3 27/21/3 28/17/3
f 25/19/4 33/23/4 34/20/4
f 27/21/4 35/25/4 36/22/4
f 33/23/5 41/27/5 42/24/5
f 35/25/5 43/29/5 44/26/5
f 41/27/6 49/32/6 50/28/6
f 43/29/6 51/34/6 52/30/6
f 57/31/7 58/190/7 50/28/7
f 59/33/7 60/191/7 52/30/7
f 68/35/8 60/191/8 59/33/8
f 66/37/8 58/190/8 57/31/8
f 73/39/9 74/42/9 66/37/9
f 75/40/9 76/44/9 68/35/9
f 81/41/10 82/46/10 74/42/10
f 83/43/10 84/48/10 76/44/10
f 89/45/11 90/50/11 82/46/11
f 91/47/11 92/52/11 84/48/11
f 97/49/12 98/54/12 90/50/12
f 99/51/12 100/56/12 92/52/12
f 105/53/13 106/58/13 98/54/13
f 107/55/13 108/60/13 100/56/13
f 113/57/14 114/62/14 106/58/14
f 115/59/14 116/64/14 108/60/14
f 121/61/15 122/66/15 114/62/15
f 123/63/15 124/68/15 116/64/15
f 127/65/16 129/70/16 122/66/16
f 131/67/16 132/72/16 124/68/16
f 133/69/17 134/74/17 129/70/17
f 135/71/17 136/76/17 132/72/17
f 137/73/18 138/78/18 134/74/18
f 139/75/18 140/80/18 136/76/18
f 141/77/19 142/82/19 138/78/19
f 143/79/19 144/84/19 140/80/19
f 21/81/20 22/86/20 142/82/20
f 23/83/20 24/88/20 144/84/20
f 29/85/21 30/90/21 22/86/21
f 31/87/21 32/92/21 24/88/21
f 37/89/22 38/94/22 30/90/22
f 39/91/22 40/96/22 32/92/22
f 37/89/23 45/97/23 46/93/23
f 39/91/23 47/100/23 48/95/23
f 45/97/24 53/102/24 54/98/24
f 56/99/24 48/95/24 47/100/24
f 53/102/25 61/105/25 62/103/25
f 55/101/25 63/107/25 64/104/25
f 61/105/26 69/109/26 70/106/26
f 63/107/26 71/192/26 72/108/26
f 69/109/27 77/114/27 78/110/27
f 71/112/27 79/116/27 80/113/27
f 77/114/28 85/118/28 86/115/28
f 79/116/28 87/120/28 88/117/28
f 85/118/29 93/122/29 94/119/29
f 87/120/29 95/125/29 96/121/29
f 93/122/30 101/127/30 102/123/30
f 104/124/30 96/121/30 95/125/30
f 101/127/31 109/130/31 110/128/31
f 103/126/31 111/132/31 112/129/31
f 109/130/32 117/134/32 118/131/32
f 111/132/32 119/136/32 120/133/32
f 117/134/33 125/138/33 126/135/33
f 119/136/33 128/139/33 130/137/33
f 125/138/34 17/13/34 18/15/34
f 128/139/34 19/16/34 20/18/34
f 108/60/35 116/64/35 3/168/35
f 7/141/35 40/96/35 48/95/35
f 7/141/35 48/95/35 56/99/35
f 100/56/35 108/60/35 3/168/35
f 92/52/35 100/56/35 3/168/35
f 5/140/35 7/141/35 72/108/35
f 7/141/35 56/99/35 64/104/35
f 7/141/35 64/104/35 72/108/35
f 92/52/35 3/168/35 84/48/35
f 3/168/35 1/173/35 84/48/35
f 5/140/35 72/108/35 80/113/35
f 76/44/35 84/48/35 1/173/35
f 68/35/35 76/44/35 1/173/35
f 5/140/35 80/113/35 88/117/35
f 5/140/35 88/117/35 96/121/35
f 60/191/35 68/35/35 1/173/35
f 52/30/35 60/191/35 1/173/35
f 5/140/35 96/121/35 104/124/35
f 5/140/35 104/124/35 112/129/35
f 44/26/35 52/30/35 1/173/35
f 36/22/35 44/26/35 1/173/35
f 5/140/35 112/129/35 120/133/35
f 5/140/35 120/133/35 130/137/35
f 36/22/35 1/173/35 28/17/35
f 1/173/35 5/140/35 20/18/35
f 28/17/35 1/173/35 20/18/35
f 32/92/35 40/96/35 7/141/35
f 3/168/35 116/64/35 124/68/35
f 3/168/35 124/68/35 132/72/35
f 24/88/35 32/92/35 7/141/35
f 144/84/35 24/88/35 7/141/35
f 7/141/35 3/168/35 140/80/35
f 3/168/35 132/72/35 136/76/35
f 3/168/35 136/76/35 140/80/35
f 45/97/36 37/89/36 8/5/36
f 4/10/36 113/57/36 105/53/36
f 4/10/36 105/53/36 97/49/36
f 53/102/36 45/97/36 8/5/36
f 61/105/36 53/102/36 8/5/36
f 2/11/36 4/10/36 81/41/36
f 4/10/36 97/49/36 89/45/36
f 4/10/36 89/45/36 81/41/36
f 61/105/36 8/5/36 69/109/36
f 8/5/36 6/4/36 69/109/36
f 2/11/36 81/41/36 73/39/36
f 77/114/36 69/109/36 6/4/36
f 85/118/36 77/114/36 6/4/36
f 2/11/36 73/39/36 65/38/36
f 2/11/36 65/38/36 57/31/36
f 93/122/36 85/118/36 6/4/36
f 101/127/36 93/122/36 6/4/36
f 2/11/36 57/31/36 49/32/36
f 2/11/36 49/32/36 41/27/36
f 109/130/36 101/127/36 6/4/36
f 117/134/36 109/130/36 6/4/36
f 2/11/36 41/27/36 33/23/36
f 2/11/36 33/23/36 25/19/36
f 117/134/36 6/4/36 125/138/36
f 6/4/36 2/11/36 17/13/36
f 125/138/36 6/4/36 17/13/36
f 121/61/36 113/57/36 4/10/36
f 8/5/36 37/89/36 29/85/36
f 8/5/36 29/85/36 21/81/36
f 127/65/36 121/61/36 4/10/36
f 133/69/36 127/65/36 4/10/36
f 4/10/36 8/5/36 137/73/36
f 8/5/36 21/81/36 141/77/36
f 8/5/36 141/77/36 137/73/36
f 38/193/35 46/194/35 13/142/35
f 14/143/35 106/195/35 114/196/35
f 14/143/35 114/196/35 122/197/35
f 30/198/35 38/193/35 13/142/35
f 22/199/35 30/198/35 13/142/35
f 14/143/35 122/197/35 129/200/35
f 14/143/35 129/200/35 134/201/35
f 142/202/35 22/199/35 13/142/35
f 14/143/35 134/201/35 138/144/35
f 138/144/35 142/202/35 13/142/35
f 98/203/35 106/195/35 14/143/35
f 9/146/35 13/142/35 70/204/35
f 13/142/35 46/194/35 54/205/35
f 13/142/35 54/205/35 62/206/35
f 98/203/35 14/143/35 90/207/35
f 14/143/35 10/145/35 82/208/35
f 90/207/35 14/143/35 82/208/35
f 13/142/35 62/206/35 70/204/35
f 74/209/35 82/208/35 10/145/35
f 9/146/35 70/204/35 78/210/35
f 9/146/35 78/210/35 86/211/35
f 66/212/35 74/209/35 10/145/35
f 58/213/35 66/212/35 10/145/35
f 9/146/35 86/211/35 94/214/35
f 9/146/35 94/214/35 102/215/35
f 50/216/35 58/213/35 10/145/35
f 42/217/35 50/216/35 10/145/35
f 9/146/35 102/215/35 110/218/35
f 9/146/35 110/218/35 118/219/35
f 34/220/35 42/217/35 10/145/35
f 26/221/35 34/220/35 10/145/35
f 9/146/35 118/219/35 126/222/35
f 18/147/35 26/221/35 10/145/35
f 9/146/35 126/222/35 18/147/35
f 55/223/36 47/224/36 16/152/36
f 12/149/36 15/151/36 83/225/36
f 15/151/36 107/226/36 99/227/36
f 15/151/36 99/227/36 91/228/36
f 55/223/36 16/152/36 63/229/36
f 16/152/36 11/148/36 71/230/36
f 63/229/36 16/152/36 71/230/36
f 15/151/36 91/228/36 83/225/36
f 79/231/36 71/230/36 11/148/36
f 12/149/36 83/225/36 75/232/36
f 12/149/36 75/232/36 67/233/36
f 87/234/36 79/231/36 11/148/36
f 95/235/36 87/234/36 11/148/36
f 12/149/36 67/233/36 59/236/36
f 12/149/36 59/236/36 51/237/36
f 103/238/36 95/235/36 11/148/36
f 111/239/36 103/238/36 11/148/36
f 12/149/36 51/237/36 43/240/36
f 12/149/36 43/240/36 35/241/36
f 119/242/36 111/239/36 11/148/36
f 128/243/36 119/242/36 11/148/36
f 12/149/36 35/241/36 27/244/36
f 19/150/36 128/243/36 11/148/36
f 12/149/36 27/244/36 19/150/36
f 115/245/36 107/226/36 15/151/36
f 16/152/36 47/224/36 39/246/36
f 16/152/36 39/246/36 31/247/36
f 123/248/36 115/245/36 15/151/36
f 131/249/36 123/248/36 15/151/36
f 16/152/36 31/247/36 23/250/36
f 16/152/36 23/250/36 143/251/36
f 135/252/36 131/249/36 15/151/36
f 16/152/36 143/251/36 139/153/36
f 139/153/36 135/252/36 15/151/36
f 149/154/37 150/253/37 146/155/37
f 147/157/37 151/161/37 152/158/37
f 155/160/35 152/158/35 151/161/35
f 153/163/35 150/253/35 149/154/35
f 156/165/38 147/157/38 148/159/38
f 153/167/38 154/254/38 145/156/38
f 150/171/39 4/255/39 3/168/39
f 7/141/39 8/170/39 153/172/39
f 146/169/39 150/171/39 3/168/39
f 7/141/39 153/172/39 146/169/39
f 8/170/39 4/255/39 150/171/39
f 1/173/40 2/177/40 151/176/40
f 147/174/40 156/256/40 5/140/40
f 156/256/40 6/175/40 5/140/40
f 1/173/40 151/176/40 147/174/40
f 6/175/40 156/256/40 151/176/40
f 148/178/39 152/180/39 12/149/39
f 152/180/39 10/257/39 12/149/39
f 11/148/39 9/179/39 155/181/39
f 11/148/39 155/181/39 148/178/39
f 9/179/39 10/257/39 152/180/39
f 145/182/40 154/258/40 16/152/40
f 154/258/40 13/183/40 16/152/40
f 15/151/40 14/185/40 149/184/40
f 15/151/40 149/184/40 145/182/40
f 13/183/40 154/258/40 149/184/40
